<?xml version="1.0" encoding="UTF-8" ?>
<!DOCTYPE svg PUBLIC "-//W3C//DTD SVG 1.1//EN" "http://www.w3.org/Graphics/SVG/1.1/DTD/svg11.dtd">
<svg width="256pt" height="256pt" viewBox="0 0 256 256" version="1.1" xmlns="http://www.w3.org/2000/svg">
<path fill="#ffffff" d=" M 0.00 0.00 L 256.00 0.00 L 256.00 256.00 L 0.00 256.00 L 0.00 0.00 Z" />
<path fill="#bf0006" d=" M 163.08 30.31 C 164.37 29.09 165.65 27.86 166.98 26.67 C 167.03 29.20 167.00 31.73 167.00 34.26 C 166.99 35.58 167.00 36.90 167.00 38.22 C 167.00 39.56 167.00 40.90 167.00 42.25 C 166.99 43.57 167.00 44.89 167.01 46.21 C 167.03 49.04 167.03 51.86 166.93 54.69 C 165.63 55.91 164.34 57.14 163.02 58.33 C 162.97 55.79 163.00 53.25 163.00 50.71 C 163.00 49.37 163.00 48.02 163.00 46.68 C 163.00 45.35 163.00 44.02 163.00 42.69 C 162.99 41.39 162.98 40.09 162.98 38.79 C 162.96 35.96 162.98 33.13 163.08 30.31 Z" />
<path fill="#790004" d=" M 167.00 34.26 C 167.50 33.88 168.51 33.12 169.01 32.74 C 169.00 34.05 168.99 35.37 168.99 36.69 C 168.49 37.07 167.50 37.84 167.00 38.22 C 167.00 36.90 166.99 35.58 167.00 34.26 Z" />
<path fill="#bf0006" d=" M 156.07 37.31 C 157.37 36.09 158.65 34.86 159.98 33.67 C 160.03 36.21 160.00 38.74 160.00 41.28 C 160.00 42.62 160.00 43.97 160.00 45.32 C 160.00 46.64 160.00 47.97 160.00 49.29 C 160.00 50.60 160.01 51.90 160.02 53.21 C 160.04 56.04 160.02 58.86 159.93 61.69 C 158.63 62.91 157.35 64.14 156.02 65.33 C 155.97 62.80 156.00 60.27 156.00 57.74 C 156.00 56.41 156.00 55.08 156.00 53.75 C 156.00 53.00 156.00 51.49 156.00 50.74 C 156.00 49.42 156.00 48.10 156.00 46.78 C 155.97 43.63 155.96 40.47 156.07 37.31 Z" />
<path fill="#790004" d=" M 160.00 41.28 C 160.99 40.44 161.97 39.60 162.98 38.79 C 162.98 40.09 162.99 41.39 163.00 42.69 C 161.99 43.57 161.00 44.45 160.00 45.32 C 160.00 43.97 160.00 42.62 160.00 41.28 Z" />
<path fill="#790004" d=" M 167.00 42.25 C 167.50 41.87 168.51 41.12 169.01 40.74 C 169.00 42.06 168.99 43.37 168.98 44.69 C 168.49 45.07 167.50 45.83 167.01 46.21 C 167.00 44.89 166.99 43.57 167.00 42.25 Z" />
<path fill="#bf0006" d=" M 89.09 104.35 C 110.14 83.55 130.84 62.39 151.98 41.69 C 151.97 51.01 152.11 60.33 151.91 69.65 C 138.38 83.07 124.93 96.58 111.46 110.07 C 103.75 117.06 97.05 125.11 88.98 131.72 C 89.08 122.59 88.86 113.47 89.09 104.35 Z" />
<path fill="#ffffff" d=" M 160.00 45.32 C 161.00 44.45 161.99 43.57 163.00 42.69 C 163.00 44.02 163.00 45.35 163.00 46.68 C 162.00 47.55 161.00 48.42 160.00 49.29 C 160.00 47.97 160.00 46.64 160.00 45.32 Z" />
<path fill="#790004" d=" M 154.02 48.30 C 154.51 47.92 155.50 47.16 156.00 46.78 C 156.00 48.10 156.00 49.42 156.00 50.74 C 155.50 51.12 154.49 51.88 153.99 52.27 C 153.99 50.94 154.00 49.62 154.02 48.30 Z" />
<path fill="#790004" d=" M 160.00 49.29 C 161.00 48.42 162.00 47.55 163.00 46.68 C 163.00 48.02 163.00 49.37 163.00 50.71 C 162.01 51.54 161.02 52.39 160.02 53.21 C 160.01 51.90 160.00 50.60 160.00 49.29 Z" />
<path fill="#790004" d=" M 154.02 55.32 C 154.51 54.92 155.51 54.14 156.00 53.75 C 156.00 55.08 156.00 56.41 156.00 57.74 C 155.50 58.12 154.49 58.88 153.99 59.26 C 153.99 57.95 154.00 56.63 154.02 55.32 Z" />
<path fill="#790004" d=" M 88.98 131.72 C 97.05 125.11 103.75 117.06 111.46 110.07 C 129.90 115.43 148.62 119.82 167.03 125.30 C 158.95 131.88 152.24 139.93 144.54 146.92 C 126.09 141.61 107.39 137.15 88.98 131.72 Z" />
<path fill="#bf0006" d=" M 144.54 146.92 C 152.24 139.93 158.95 131.88 167.03 125.30 C 166.91 134.41 167.14 143.53 166.91 152.65 C 140.86 178.45 115.16 204.61 89.02 230.31 C 89.03 220.99 88.89 211.67 89.09 202.35 C 107.62 183.93 126.08 165.42 144.54 146.92 Z" />
</svg>
